<mxfile host="app.diagrams.net" modified="2024-02-03T23:30:24.601Z" agent="Mozilla/5.0 (Windows NT 10.0; Win64; x64) AppleWebKit/537.36 (KHTML, like Gecko) Chrome/121.0.0.0 Safari/537.36" etag="w43dGyJwAh1rBFfV38t-" version="23.0.2" type="google">
  <diagram name="Página-1" id="AWzNd8b1zSMljOCFXja7">
    <mxGraphModel grid="1" page="1" gridSize="10" guides="1" tooltips="1" connect="1" arrows="1" fold="1" pageScale="1" pageWidth="827" pageHeight="1169" math="0" shadow="0">
      <root>
        <mxCell id="0" />
        <mxCell id="1" parent="0" />
        <mxCell id="mLO-cmyMDc5UGhNt3zZc-7" value="&lt;div style=&quot;&quot;&gt;&lt;br&gt;&lt;/div&gt;&lt;div style=&quot;&quot;&gt;&lt;br&gt;&lt;/div&gt;&lt;div style=&quot;&quot;&gt;&lt;br&gt;&lt;/div&gt;&lt;div style=&quot;&quot;&gt;&lt;br&gt;&lt;/div&gt;&lt;div style=&quot;&quot;&gt;&lt;br&gt;&lt;/div&gt;&lt;div style=&quot;&quot;&gt;&lt;br&gt;&lt;/div&gt;&lt;div style=&quot;&quot;&gt;React&amp;nbsp; &amp;nbsp; &amp;nbsp; &amp;nbsp; &amp;nbsp; &amp;nbsp; &amp;nbsp; &amp;nbsp; &amp;nbsp;Node.js&lt;/div&gt;&lt;div style=&quot;&quot;&gt;&lt;br&gt;&lt;/div&gt;&lt;div style=&quot;&quot;&gt;&lt;br&gt;&lt;/div&gt;" style="rounded=0;whiteSpace=wrap;html=1;align=center;" vertex="1" parent="1">
          <mxGeometry x="190" y="10" width="170" height="100" as="geometry" />
        </mxCell>
        <mxCell id="mLO-cmyMDc5UGhNt3zZc-25" value="" style="edgeStyle=orthogonalEdgeStyle;rounded=0;orthogonalLoop=1;jettySize=auto;html=1;" edge="1" parent="1" source="mLO-cmyMDc5UGhNt3zZc-1" target="mLO-cmyMDc5UGhNt3zZc-9">
          <mxGeometry relative="1" as="geometry" />
        </mxCell>
        <mxCell id="mLO-cmyMDc5UGhNt3zZc-1" value="" style="image;aspect=fixed;perimeter=ellipsePerimeter;html=1;align=center;shadow=0;dashed=0;spacingTop=3;image=img/lib/active_directory/web_server.svg;" vertex="1" parent="1">
          <mxGeometry x="220" y="160" width="60" height="75" as="geometry" />
        </mxCell>
        <mxCell id="mLO-cmyMDc5UGhNt3zZc-2" value="" style="outlineConnect=0;dashed=0;verticalLabelPosition=bottom;verticalAlign=top;align=center;html=1;shape=mxgraph.aws3.android;fillColor=#8CC64F;gradientColor=none;" vertex="1" parent="1">
          <mxGeometry x="291" y="22" width="43.5" height="60" as="geometry" />
        </mxCell>
        <mxCell id="mLO-cmyMDc5UGhNt3zZc-3" value="" style="shape=image;html=1;verticalAlign=top;verticalLabelPosition=bottom;labelBackgroundColor=#ffffff;imageAspect=0;aspect=fixed;image=https://cdn1.iconfinder.com/data/icons/unicons-line-vol-5/24/react-128.png" vertex="1" parent="1">
          <mxGeometry x="200" y="15" width="68" height="68" as="geometry" />
        </mxCell>
        <mxCell id="mLO-cmyMDc5UGhNt3zZc-29" style="edgeStyle=orthogonalEdgeStyle;rounded=0;orthogonalLoop=1;jettySize=auto;html=1;" edge="1" parent="1" source="mLO-cmyMDc5UGhNt3zZc-9">
          <mxGeometry relative="1" as="geometry">
            <mxPoint x="540" y="198.4000000000001" as="targetPoint" />
          </mxGeometry>
        </mxCell>
        <mxCell id="mLO-cmyMDc5UGhNt3zZc-9" value="" style="shadow=0;dashed=0;html=1;strokeColor=none;fillColor=#EF8F21;labelPosition=center;verticalLabelPosition=bottom;verticalAlign=top;align=center;outlineConnect=0;shape=mxgraph.veeam.2d.restful_apis;" vertex="1" parent="1">
          <mxGeometry x="349" y="166" width="64.8" height="64.8" as="geometry" />
        </mxCell>
        <mxCell id="mLO-cmyMDc5UGhNt3zZc-10" value="" style="strokeColor=#dddddd;shadow=1;strokeWidth=1;rounded=1;absoluteArcSize=1;arcSize=2;" vertex="1" parent="1">
          <mxGeometry x="330" y="260" width="111" height="50" as="geometry" />
        </mxCell>
        <mxCell id="mLO-cmyMDc5UGhNt3zZc-14" value="" style="rounded=1;whiteSpace=wrap;html=1;" vertex="1" parent="mLO-cmyMDc5UGhNt3zZc-10">
          <mxGeometry x="4" width="106" height="50" as="geometry" />
        </mxCell>
        <mxCell id="mLO-cmyMDc5UGhNt3zZc-11" value="&lt;font style=&quot;&quot;&gt;&lt;span style=&quot;font-size: 10px;&quot;&gt;Firebase&lt;/span&gt;&lt;br&gt;&lt;font style=&quot;font-size: 8px;&quot;&gt;Authentication&lt;/font&gt;&lt;/font&gt;" style="sketch=0;dashed=0;connectable=0;html=1;fillColor=#5184F3;strokeColor=none;shape=mxgraph.gcp2.firebase;part=1;labelPosition=right;verticalLabelPosition=middle;align=left;verticalAlign=middle;spacingLeft=5;fontColor=#999999;fontSize=12;" vertex="1" parent="mLO-cmyMDc5UGhNt3zZc-10">
          <mxGeometry width="22.4" height="30" relative="1" as="geometry">
            <mxPoint x="15" y="7" as="offset" />
          </mxGeometry>
        </mxCell>
        <mxCell id="mLO-cmyMDc5UGhNt3zZc-23" style="edgeStyle=orthogonalEdgeStyle;rounded=0;orthogonalLoop=1;jettySize=auto;html=1;" edge="1" parent="1" source="mLO-cmyMDc5UGhNt3zZc-19" target="mLO-cmyMDc5UGhNt3zZc-20">
          <mxGeometry relative="1" as="geometry" />
        </mxCell>
        <mxCell id="mLO-cmyMDc5UGhNt3zZc-24" value="SDK" style="edgeLabel;html=1;align=center;verticalAlign=middle;resizable=0;points=[];" vertex="1" connectable="0" parent="mLO-cmyMDc5UGhNt3zZc-23">
          <mxGeometry x="0.0416" y="-1" relative="1" as="geometry">
            <mxPoint as="offset" />
          </mxGeometry>
        </mxCell>
        <mxCell id="mLO-cmyMDc5UGhNt3zZc-31" style="edgeStyle=orthogonalEdgeStyle;rounded=0;orthogonalLoop=1;jettySize=auto;html=1;entryX=0.5;entryY=0;entryDx=0;entryDy=0;" edge="1" parent="1" source="mLO-cmyMDc5UGhNt3zZc-19" target="mLO-cmyMDc5UGhNt3zZc-1">
          <mxGeometry relative="1" as="geometry">
            <mxPoint x="565" y="69.99999999999977" as="targetPoint" />
            <Array as="points">
              <mxPoint x="565" y="140" />
              <mxPoint x="250" y="140" />
            </Array>
          </mxGeometry>
        </mxCell>
        <mxCell id="mLO-cmyMDc5UGhNt3zZc-32" value="Rertono do e-mail e dados do usuário" style="edgeLabel;html=1;align=center;verticalAlign=middle;resizable=0;points=[];" vertex="1" connectable="0" parent="mLO-cmyMDc5UGhNt3zZc-31">
          <mxGeometry x="0.0089" y="2" relative="1" as="geometry">
            <mxPoint as="offset" />
          </mxGeometry>
        </mxCell>
        <mxCell id="mLO-cmyMDc5UGhNt3zZc-19" value="Firestore" style="sketch=0;html=1;verticalAlign=top;labelPosition=center;verticalLabelPosition=bottom;align=center;spacingTop=-6;fontSize=11;fontStyle=1;fontColor=#999999;shape=image;aspect=fixed;imageAspect=0;image=data:image/svg+xml,PHN2ZyB4bWxucz0iaHR0cDovL3d3dy53My5vcmcvMjAwMC9zdmciIHhtbG5zOnY9Imh0dHBzOi8vdmVjdGEuaW8vbmFubyIgd2lkdGg9IjMyMy45MDU2MTAzOTg2NzUxNSIgaGVpZ2h0PSIzNzYuNDIyMjk0OTYzNjg0MDciIHZpZXdCb3g9Ii0wLjA5NzAwMDAwMjg2MTAyMjk1IDAuMjg3OTk5OTg3NjAyMjMzOSA4NS42OTk5OTY5NDgyNDIxOSA5OS41OTUwMDEyMjA3MDMxMiI+JiN4YTs8c3R5bGUgdHlwZT0idGV4dC9jc3MiPiYjeGE7CS5zdDB7ZmlsbDojYWVjYmZhO30mI3hhOwkuc3Qxe2ZpbGw6IzY2OWRmNjt9JiN4YTsJLnN0MntmaWxsOiM0Mjg1ZjQ7fSYjeGE7PC9zdHlsZT4mI3hhOwk8cGF0aCBjbGFzcz0ic3QwIiBkPSJNLS4wOTcgNzUuODE1VjU1Ljg3NGw0Mi44NS0yMC4xODN2MTkuMDd6bTAtMzUuNDAzVjIwLjQ3MUw0Mi43NTMuMjg4djE5LjA3eiIvPiYjeGE7CTxwYXRoIGNsYXNzPSJzdDEiIGQ9Ik04NS42MDMgNzUuODE1VjU1Ljg3NGwtNDIuODUtMjAuMTgzdjE5LjA3em0wLTM1LjQwM1YyMC40NzFMNDIuNzUzLjI4OHYxOS4wN3oiLz4mI3hhOwk8cGF0aCBjbGFzcz0ic3QyIiBkPSJNNDIuNzUzIDgwLjMxNGwxNi4yMTctNy41MjUgMjEuMDg0IDkuNzE3LTM3LjMwMSAxNy4zNzd6Ii8+JiN4YTs8L3N2Zz4=;" vertex="1" parent="1">
          <mxGeometry x="540" y="168.33" width="50" height="58.34" as="geometry" />
        </mxCell>
        <mxCell id="mLO-cmyMDc5UGhNt3zZc-30" style="edgeStyle=orthogonalEdgeStyle;rounded=0;orthogonalLoop=1;jettySize=auto;html=1;entryX=0.25;entryY=1;entryDx=0;entryDy=0;" edge="1" parent="1" source="mLO-cmyMDc5UGhNt3zZc-20" target="mLO-cmyMDc5UGhNt3zZc-1">
          <mxGeometry relative="1" as="geometry" />
        </mxCell>
        <mxCell id="mLO-cmyMDc5UGhNt3zZc-33" value="Retorno de imagens" style="edgeLabel;html=1;align=center;verticalAlign=middle;resizable=0;points=[];" vertex="1" connectable="0" parent="mLO-cmyMDc5UGhNt3zZc-30">
          <mxGeometry x="-0.4285" y="-1" relative="1" as="geometry">
            <mxPoint as="offset" />
          </mxGeometry>
        </mxCell>
        <mxCell id="mLO-cmyMDc5UGhNt3zZc-20" value="" style="image;html=1;image=img/lib/clip_art/networking/Cloud_Storage_128x128.png" vertex="1" parent="1">
          <mxGeometry x="525" y="330" width="80" height="80" as="geometry" />
        </mxCell>
        <mxCell id="H_Fv5q6ZLfBGU_1aC8RG-1" value="Endpoint" style="text;html=1;align=center;verticalAlign=middle;resizable=0;points=[];autosize=1;strokeColor=none;fillColor=none;" vertex="1" parent="1">
          <mxGeometry x="370" y="141.99999999999997" width="70" height="30" as="geometry" />
        </mxCell>
        <mxCell id="H_Fv5q6ZLfBGU_1aC8RG-2" value="Endpoint" style="text;html=1;align=center;verticalAlign=middle;resizable=0;points=[];autosize=1;strokeColor=none;fillColor=none;" vertex="1" parent="1">
          <mxGeometry x="375" y="338" width="70" height="30" as="geometry" />
        </mxCell>
      </root>
    </mxGraphModel>
  </diagram>
</mxfile>
